<?xml version="1.0" encoding="UTF-8" standalone="no"?><!-- Generator: Gravit.io --><svg xmlns="http://www.w3.org/2000/svg" xmlns:xlink="http://www.w3.org/1999/xlink" style="isolation:isolate" viewBox="0 0 1024 500" width="1024pt" height="768pt"><defs><clipPath id="_clipPath_5L6NzLL4OLFryRIROYAawC1qL5XtC8C0"><rect width="1024" height="768"/></clipPath></defs><g clip-path="url(#_clipPath_5L6NzLL4OLFryRIROYAawC1qL5XtC8C0)"><rect width="1024" height="400" style="fill:none"/><path d=" M 604.159 197.825 L 604.159 197.825 L 604.159 197.825" fill="rgb(0,0,0)"/><path d=" M 559.888 216.871 L 648.822 216.871 L 559.888 296.435 L 559.888 216.871 L 559.888 216.871 L 559.888 216.871 L 559.888 216.871 Z  M 323.185 180.247 L 323.185 432.829 L 361.495 458.087 L 361.495 216.871 L 394.333 216.871 L 394.333 478.294 L 432.643 502.289 L 432.643 216.871 L 462.744 216.871 L 462.744 349.477 L 501.054 314.115 L 501.054 180.247 L 323.185 180.247 L 323.185 180.247 Z  M 610.885 299.879 L 559.888 346.951 L 559.888 346.951 L 559.888 346.951 L 501.054 401.888 L 501.054 545.228 L 462.744 521.233 L 462.744 386.733 L 521.578 332.428 L 521.578 180.247 L 558.52 180.247 L 559.888 180.247 L 700.815 180.247 L 700.815 216.871 L 640.321 272.709 L 700.815 341.899 L 700.815 420.882 L 662.505 446.927 L 662.505 357.054 L 610.885 299.879 L 610.885 299.879 L 610.885 299.879 Z  M 559.888 386.101 L 522.946 421.463 L 522.946 545.228 L 559.888 519.97 L 559.888 386.101 Z " fill-rule="evenodd" fill="rgb(16,66,61)"/><g clip-path="url(#_clipPath_8dARFgydzdrDGjuC2c9m5SpJgY5g7WTF)"></g><defs><clipPath id="_clipPath_8dARFgydzdrDGjuC2c9m5SpJgY5g7WTF"><rect x="0" y="0" width="575" height="80" transform="matrix(1.022,0,0,1.085,218.13,599.328)"/></clipPath></defs></g></svg>