<svg xmlns="http://www.w3.org/2000/svg" xmlns:xlink="http://www.w3.org/1999/xlink" width="256" zoomAndPan="magnify" viewBox="0 0 192 191.999996" height="256" preserveAspectRatio="xMidYMid meet" version="1.0"><defs><clipPath id="4c9ac807d6"><path d="M 58 25.480469 L 185.835938 25.480469 L 185.835938 166.480469 L 58 166.480469 Z M 58 25.480469 " clip-rule="nonzero"/></clipPath><clipPath id="514f9d83bb"><path d="M 6.164062 40 L 68 40 L 68 45 L 6.164062 45 Z M 6.164062 40 " clip-rule="nonzero"/></clipPath></defs><g clip-path="url(#4c9ac807d6)"><path fill="#10423d" d="M 59.558594 136.371094 C 60.425781 135.703125 61.683594 135.859375 62.351562 136.726562 C 75.09375 153.125 94.308594 162.53125 115.078125 162.53125 C 151.839844 162.53125 181.75 132.683594 181.75 95.996094 C 181.75 59.3125 151.839844 29.464844 115.078125 29.464844 C 103.40625 29.464844 91.921875 32.515625 81.871094 38.289062 C 80.917969 38.839844 79.703125 38.511719 79.152344 37.558594 C 78.605469 36.609375 78.933594 35.394531 79.882812 34.847656 C 90.542969 28.726562 102.710938 25.488281 115.078125 25.488281 C 154.035156 25.488281 185.730469 57.121094 185.730469 95.996094 C 185.730469 134.875 154.035156 166.507812 115.078125 166.507812 C 93.070312 166.507812 72.707031 156.539062 59.207031 139.160156 C 58.53125 138.292969 58.691406 137.046875 59.558594 136.371094 " fill-opacity="1" fill-rule="nonzero"/></g><path fill="#10423d" d="M 85.660156 53.105469 C 85.070312 52.179688 85.347656 50.953125 86.28125 50.367188 C 94.890625 44.941406 104.847656 42.078125 115.078125 42.078125 C 144.871094 42.078125 169.109375 66.265625 169.109375 95.996094 C 169.109375 125.730469 144.871094 149.917969 115.078125 149.917969 C 100.140625 149.917969 85.734375 143.664062 75.550781 132.757812 C 74.796875 131.953125 74.84375 130.699219 75.648438 129.949219 C 76.449219 129.203125 77.710938 129.246094 78.460938 130.046875 C 87.898438 140.148438 101.242188 145.941406 115.078125 145.941406 C 142.675781 145.941406 165.128906 123.539062 165.128906 95.996094 C 165.128906 68.457031 142.675781 46.050781 115.078125 46.050781 C 105.601562 46.050781 96.378906 48.707031 88.402344 53.726562 C 87.476562 54.3125 86.242188 54.035156 85.660156 53.105469 " fill-opacity="1" fill-rule="nonzero"/><path fill="#10423d" d="M 115.078125 90.921875 C 112.273438 90.921875 109.992188 93.199219 109.992188 95.996094 C 109.992188 98.792969 112.273438 101.070312 115.078125 101.070312 C 117.882812 101.070312 120.160156 98.792969 120.160156 95.996094 C 120.160156 93.199219 117.882812 90.921875 115.078125 90.921875 Z M 137.046875 111.300781 C 136.660156 111.855469 136.039062 112.148438 135.410156 112.148438 C 135.019531 112.148438 134.621094 112.035156 134.273438 111.792969 L 121.1875 102.675781 C 119.574219 104.148438 117.429688 105.042969 115.078125 105.042969 C 110.078125 105.042969 106.011719 100.984375 106.011719 95.996094 C 106.011719 91.691406 109.042969 88.078125 113.085938 87.171875 L 113.085938 60.082031 C 113.085938 58.984375 113.976562 58.097656 115.078125 58.097656 C 116.179688 58.097656 117.066406 58.984375 117.066406 60.082031 L 117.066406 87.171875 C 121.113281 88.078125 124.144531 91.691406 124.144531 95.996094 C 124.144531 97.207031 123.902344 98.363281 123.46875 99.421875 L 136.550781 108.535156 C 137.453125 109.160156 137.675781 110.398438 137.046875 111.300781 " fill-opacity="1" fill-rule="nonzero"/><g clip-path="url(#514f9d83bb)"><path fill="#10423d" d="M 7.929688 40.214844 L 65.5 40.214844 C 66.601562 40.214844 67.492188 41.101562 67.492188 42.199219 C 67.492188 43.296875 66.601562 44.1875 65.5 44.1875 L 7.929688 44.1875 C 6.832031 44.1875 5.9375 43.296875 5.9375 42.199219 C 5.9375 41.101562 6.832031 40.214844 7.929688 40.214844 " fill-opacity="1" fill-rule="nonzero"/></g><path fill="#10423d" d="M 21.238281 63.996094 L 78.8125 63.996094 C 79.910156 63.996094 80.804688 64.886719 80.804688 65.984375 C 80.804688 67.082031 79.910156 67.972656 78.8125 67.972656 L 21.238281 67.972656 C 20.140625 67.972656 19.246094 67.082031 19.246094 65.984375 C 19.246094 64.886719 20.140625 63.996094 21.238281 63.996094 " fill-opacity="1" fill-rule="nonzero"/><path fill="#10423d" d="M 39.039062 87.78125 L 92.675781 87.78125 C 93.777344 87.78125 94.667969 88.671875 94.667969 89.769531 C 94.667969 90.867188 93.777344 91.753906 92.675781 91.753906 L 39.039062 91.753906 C 37.9375 91.753906 37.046875 90.867188 37.046875 89.769531 C 37.046875 88.671875 37.9375 87.78125 39.039062 87.78125 " fill-opacity="1" fill-rule="nonzero"/><path fill="#10423d" d="M 47.859375 111.566406 L 83.453125 111.566406 C 84.554688 111.566406 85.445312 112.453125 85.445312 113.550781 C 85.445312 114.648438 84.554688 115.539062 83.453125 115.539062 L 47.859375 115.539062 C 46.757812 115.539062 45.867188 114.648438 45.867188 113.550781 C 45.867188 112.453125 46.757812 111.566406 47.859375 111.566406 " fill-opacity="1" fill-rule="nonzero"/></svg>