<svg xmlns="http://www.w3.org/2000/svg" xmlns:xlink="http://www.w3.org/1999/xlink" width="256" zoomAndPan="magnify" viewBox="0 0 192 191.999996" height="256" preserveAspectRatio="xMidYMid meet" version="1.0"><defs><clipPath id="a6dfb45216"><path d="M 22.566406 22.382812 L 169.566406 22.382812 L 169.566406 169.382812 L 22.566406 169.382812 Z M 22.566406 22.382812 " clip-rule="nonzero"/></clipPath></defs><path fill="#10423d" d="M 96.109375 139.738281 C 72.179688 139.738281 52.65625 120.265625 52.65625 96.398438 C 52.65625 72.53125 72.179688 52.96875 96.109375 52.96875 C 120.125 52.96875 139.648438 72.53125 139.648438 96.398438 C 139.648438 120.4375 120.125 139.738281 96.109375 139.738281 Z M 96.109375 57.191406 C 74.425781 57.191406 56.800781 74.769531 56.800781 96.398438 C 56.800781 118.027344 74.425781 135.605469 96.109375 135.605469 C 117.792969 135.605469 135.414062 118.027344 135.414062 96.398438 C 135.414062 74.769531 117.792969 57.191406 96.109375 57.191406 Z M 96.109375 57.191406 " fill-opacity="1" fill-rule="evenodd"/><path fill="#10423d" d="M 88.59375 119.835938 C 88.246094 119.835938 87.816406 119.664062 87.46875 119.578125 C 87.382812 119.492188 87.296875 119.316406 87.039062 119.230469 L 79.347656 111.648438 L 68.722656 101.050781 C 65.785156 98.035156 65.785156 93.296875 68.722656 90.453125 C 71.660156 87.523438 76.5 87.523438 79.347656 90.453125 L 88.59375 99.585938 L 112.867188 75.113281 C 114.335938 73.648438 116.148438 72.960938 118.136719 72.960938 C 120.210938 72.960938 122.023438 73.648438 123.40625 75.113281 C 124.875 76.578125 125.738281 78.476562 125.738281 80.457031 C 125.738281 82.523438 124.875 84.335938 123.40625 85.714844 L 89.976562 119.230469 C 89.886719 119.316406 89.628906 119.492188 89.542969 119.578125 C 89.285156 119.664062 88.9375 119.835938 88.679688 119.835938 C 88.679688 119.835938 88.679688 119.835938 88.59375 119.835938 Z M 74.078125 92.433594 C 73.214844 92.433594 72.265625 92.777344 71.660156 93.382812 C 70.453125 94.589844 70.453125 96.742188 71.832031 98.035156 L 88.59375 114.664062 L 120.554688 82.785156 C 121.160156 82.179688 121.507812 81.320312 121.507812 80.457031 C 121.507812 79.507812 121.160156 78.734375 120.554688 78.128906 C 119.347656 76.925781 117.1875 76.925781 115.890625 78.128906 L 89.976562 104.066406 C 89.199219 104.84375 87.816406 104.84375 87.039062 104.066406 C 86.863281 103.894531 86.777344 103.808594 86.691406 103.636719 L 76.5 93.382812 C 75.894531 92.691406 74.945312 92.433594 74.078125 92.433594 Z M 74.078125 92.433594 " fill-opacity="1" fill-rule="evenodd"/><g clip-path="url(#a6dfb45216)"><path fill="#10423d" d="M 96.453125 169.382812 C 92.566406 169.382812 89.457031 166.453125 86.261719 163.4375 C 84.101562 161.367188 82.027344 159.214844 79.867188 158.609375 C 77.792969 158.179688 74.769531 158.867188 71.921875 159.644531 C 67.601562 160.679688 63.195312 161.710938 59.480469 159.730469 C 55.765625 157.578125 54.46875 153.183594 53.261719 148.875 C 52.398438 145.945312 51.53125 143.101562 50.152344 141.636719 C 48.683594 140.257812 45.660156 139.308594 42.808594 138.449219 C 38.746094 137.242188 34.429688 136.035156 32.527344 132.589844 C 30.628906 129.140625 31.664062 124.917969 32.785156 120.78125 C 33.476562 117.941406 34.34375 115.011719 33.738281 113.027344 C 33.21875 111.046875 31.058594 108.976562 29.074219 106.824219 C 26.050781 103.808594 22.59375 100.363281 23.023438 95.882812 C 22.59375 91.574219 26.050781 88.125 29.074219 85.023438 C 31.058594 83.042969 33.21875 80.886719 33.824219 78.820312 C 34.34375 76.925781 33.566406 73.910156 32.875 71.066406 C 31.75 67.015625 30.628906 62.707031 32.613281 59.347656 C 34.515625 55.898438 38.835938 54.695312 42.894531 53.488281 C 45.832031 52.625 48.769531 51.851562 50.238281 50.300781 C 51.707031 48.835938 52.484375 45.816406 53.347656 43.0625 C 54.554688 38.753906 55.851562 34.359375 59.566406 32.203125 C 63.28125 30.050781 67.773438 31.171875 72.007812 32.203125 C 74.945312 32.894531 77.878906 33.667969 79.953125 33.152344 C 82.027344 32.722656 84.273438 30.566406 86.433594 28.414062 C 89.542969 25.398438 92.652344 22.382812 96.625 22.382812 C 100.601562 22.382812 103.710938 25.484375 106.648438 28.5 C 108.808594 30.566406 110.964844 32.808594 112.867188 33.324219 C 114.941406 33.753906 117.792969 33.066406 120.640625 32.375 C 124.789062 31.257812 129.109375 30.050781 132.5625 32.117188 C 136.019531 34.011719 137.226562 38.148438 138.4375 42.285156 C 139.214844 45.128906 140.078125 48.144531 141.632812 49.523438 C 143.1875 51.074219 146.125 51.9375 148.976562 52.796875 C 153.296875 54.003906 157.703125 55.296875 159.773438 59 C 161.761719 62.535156 160.726562 67.101562 159.601562 71.410156 C 158.910156 74.253906 158.21875 77.269531 158.652344 79.335938 C 159.257812 81.320312 161.417969 83.558594 163.488281 85.714844 C 166.425781 88.902344 169.535156 92.003906 169.449219 95.882812 C 169.535156 99.84375 166.425781 103.117188 163.488281 106.222656 C 161.417969 108.375 159.257812 110.617188 158.652344 112.597656 C 158.21875 114.664062 158.910156 117.679688 159.601562 120.523438 C 160.726562 124.832031 161.761719 129.226562 159.773438 132.933594 C 157.617188 136.636719 153.125 138.015625 148.804688 139.136719 C 145.953125 140 143.101562 140.859375 141.632812 142.238281 C 140.078125 143.789062 139.214844 146.804688 138.4375 149.648438 C 137.226562 153.785156 136.019531 157.921875 132.5625 159.988281 C 129.109375 161.882812 124.875 160.765625 120.640625 159.730469 C 117.792969 159.042969 114.941406 158.179688 112.867188 158.78125 C 110.878906 159.214844 108.722656 161.367188 106.648438 163.523438 C 103.539062 166.277344 100.425781 169.382812 96.453125 169.382812 Z M 78.3125 154.386719 C 79.261719 154.386719 80.039062 154.472656 80.902344 154.734375 C 84.015625 155.507812 86.691406 158.007812 89.199219 160.417969 C 91.703125 162.832031 94.207031 165.332031 96.453125 165.246094 C 98.785156 165.246094 101.292969 162.746094 103.710938 160.332031 C 106.214844 157.835938 108.722656 155.335938 111.832031 154.472656 C 114.941406 153.613281 118.394531 154.558594 121.765625 155.421875 C 124.960938 156.285156 128.503906 157.230469 130.402344 156.113281 C 132.304688 155.078125 133.253906 151.628906 134.203125 148.355469 C 135.15625 144.910156 136.277344 141.464844 138.523438 139.136719 C 140.769531 136.984375 144.140625 136.035156 147.507812 135.085938 C 150.964844 134.140625 154.679688 133.105469 155.886719 130.777344 C 157.097656 128.625 156.234375 124.917969 155.457031 121.472656 C 154.59375 118.113281 153.726562 114.578125 154.503906 111.5625 C 155.28125 108.460938 157.789062 105.789062 160.378906 103.292969 C 162.710938 100.792969 165.21875 98.292969 165.132812 96.054688 C 165.132812 96.054688 165.132812 95.882812 165.132812 95.882812 C 165.21875 93.640625 162.710938 91.140625 160.378906 88.644531 C 157.960938 86.144531 155.28125 83.472656 154.503906 80.371094 C 153.640625 77.269531 154.59375 73.824219 155.457031 70.375 C 156.234375 66.84375 157.183594 63.136719 155.886719 60.984375 C 154.59375 58.742188 150.964844 57.796875 147.507812 56.675781 C 144.140625 55.726562 140.683594 54.695312 138.4375 52.539062 C 136.105469 50.300781 135.070312 46.765625 134.117188 43.320312 C 133.167969 40.132812 132.21875 36.769531 130.230469 35.652344 C 128.242188 34.617188 124.875 35.476562 121.507812 36.253906 C 118.136719 37.117188 114.679688 38.0625 111.570312 37.203125 C 108.460938 36.425781 105.957031 33.925781 103.449219 31.34375 C 101.03125 29.015625 98.527344 26.515625 96.367188 26.515625 C 94.121094 26.515625 91.53125 28.84375 89.199219 31.257812 C 86.691406 33.753906 84.015625 36.253906 80.816406 37.03125 C 77.792969 37.804688 74.167969 36.855469 70.882812 36.167969 C 67.339844 35.304688 63.628906 34.359375 61.46875 35.652344 C 59.222656 37.03125 58.183594 40.5625 57.148438 44.007812 C 56.199219 47.371094 55.246094 50.730469 53.085938 52.96875 C 50.839844 55.296875 47.386719 56.332031 43.929688 57.277344 C 40.5625 58.226562 37.191406 59.261719 35.984375 61.242188 C 34.945312 63.136719 35.722656 66.671875 36.589844 69.859375 C 37.453125 73.21875 38.402344 76.664062 37.539062 79.769531 C 36.675781 82.871094 34.167969 85.367188 31.664062 87.78125 C 29.074219 90.453125 26.480469 93.039062 26.914062 95.449219 C 26.914062 95.707031 26.914062 95.882812 26.914062 96.054688 C 26.480469 98.550781 29.074219 101.050781 31.75 103.808594 C 34.167969 106.308594 36.675781 108.804688 37.539062 111.820312 C 38.402344 114.925781 37.453125 118.371094 36.589844 121.730469 C 35.722656 124.917969 34.773438 128.453125 35.898438 130.347656 C 36.933594 132.328125 40.390625 133.277344 43.757812 134.3125 C 47.128906 135.257812 50.582031 136.292969 52.914062 138.535156 C 54.988281 140.859375 56.113281 144.21875 57.0625 147.496094 C 58.011719 151.027344 59.136719 154.734375 61.382812 155.9375 C 63.539062 157.058594 67.253906 156.285156 70.710938 155.421875 C 73.476562 154.90625 75.980469 154.386719 78.3125 154.386719 Z M 78.3125 154.386719 " fill-opacity="1" fill-rule="evenodd"/></g></svg>