<svg xmlns="http://www.w3.org/2000/svg" xmlns:xlink="http://www.w3.org/1999/xlink" width="256" zoomAndPan="magnify" viewBox="0 0 192 191.999996" height="256" preserveAspectRatio="xMidYMid meet" version="1.0"><defs><clipPath id="5cecffff76"><path d="M 37 39 L 178 39 L 178 162.808594 L 37 162.808594 Z M 37 39 " clip-rule="nonzero"/></clipPath><clipPath id="8fcf2b4a5c"><path d="M 162 29.308594 L 182.960938 29.308594 L 182.960938 50 L 162 50 Z M 162 29.308594 " clip-rule="nonzero"/></clipPath></defs><g clip-path="url(#5cecffff76)"><path fill="#10423d" d="M 53.777344 39.152344 L 37.789062 59.609375 L 55.875 41.835938 L 99.027344 42.914062 L 83.824219 59.980469 L 102.421875 43 L 106.214844 43.09375 L 125.457031 65.265625 L 78.402344 66.628906 L 58.617188 45.34375 L 75.332031 66.71875 L 40.273438 67.734375 L 76.773438 69.902344 L 104.492188 162.808594 L 80.261719 70.113281 L 130.027344 73.066406 L 104.492188 162.808594 L 137.101562 73.488281 L 161.269531 74.925781 L 104.492188 162.808594 L 177.546875 67.734375 L 155.203125 39.152344 Z M 109.53125 43.175781 L 147.734375 44.128906 L 134.734375 64.996094 L 133.183594 65.039062 Z M 163.679688 64.152344 L 135.484375 64.972656 L 153.488281 47.808594 L 162.816406 62.773438 Z M 163.679688 64.152344 " fill-opacity="1" fill-rule="evenodd"/></g><path fill="#10423d" d="M 30.164062 71.742188 L 31.140625 82.296875 L 32.125 71.742188 L 42.664062 70.757812 L 32.125 69.777344 L 31.140625 59.222656 L 30.164062 69.777344 L 19.621094 70.757812 Z M 30.164062 71.742188 " fill-opacity="1" fill-rule="evenodd"/><g clip-path="url(#8fcf2b4a5c)"><path fill="#10423d" d="M 171.808594 40.378906 L 172.671875 49.714844 L 173.542969 40.378906 L 182.867188 39.511719 L 173.542969 38.644531 L 172.671875 29.308594 L 171.808594 38.644531 L 162.480469 39.511719 Z M 171.808594 40.378906 " fill-opacity="1" fill-rule="evenodd"/></g><path fill="#10423d" d="M 27.160156 105.890625 L 42.425781 104.46875 L 27.160156 103.046875 L 25.742188 87.765625 L 24.320312 103.046875 L 9.058594 104.46875 L 24.320312 105.890625 L 25.742188 121.171875 Z M 27.160156 105.890625 " fill-opacity="1" fill-rule="evenodd"/><path fill="#10423d" d="M 62.765625 128.460938 L 60.769531 106.957031 L 58.769531 128.460938 L 37.296875 130.460938 L 58.769531 132.460938 L 60.769531 153.960938 L 62.765625 132.460938 L 84.238281 130.460938 Z M 62.765625 128.460938 " fill-opacity="1" fill-rule="evenodd"/></svg>