
<svg id="eydRaZDrQou1" xmlns="http://www.w3.org/2000/svg" xmlns:xlink="http://www.w3.org/1999/xlink" viewBox="0 0 1024 500" shape-rendering="geometricPrecision" text-rendering="geometricPrecision" width="1024" height="500"><g transform="matrix(.741783 0 0 0.741783 132.207104 80)" paint-order="stroke markers fill" clip-path="url(#eydRaZDrQou5)"><rect width="1024" height="400" rx="0" ry="0" fill="none" class="svg-elem-1"></rect><path d="M559.888,216.871h88.934l-88.934,79.564v-79.564v0v0v0ZM323.185,180.247v252.582l38.31,25.258v-241.216h32.838v261.423l38.31,23.995v-285.418h30.101v132.606l38.31-35.362v-133.868h-177.869v0Zm287.7,119.632l-50.997,47.072v0v0l-58.834,54.937v143.34l-38.31-23.995v-134.5l58.834-54.305v-152.181h36.942h1.368h140.927v36.624l-60.494,55.838l60.494,69.19v78.983l-38.31,26.045v-89.873l-51.62-57.175v0v0Zm-50.997,86.222l-36.942,35.362v123.765l36.942-25.258v-133.869Z" transform="translate(0-133.559964)" fill="rgba(16,66,61,0.95)" fill-rule="evenodd" stroke="#10423d" stroke-width="3" class="svg-elem-2"></path><clipPath id="eydRaZDrQou5"><rect width="1024" height="768" rx="0" ry="0" class="svg-elem-3"></rect></clipPath></g></svg>